<svg width="30" height="30" viewBox="0 0 30 30" fill="none" xmlns="http://www.w3.org/2000/svg">
<g clip-path="url(#clip0_300_62)">
<path d="M23.7858 0.571359C23.5001 1.28564 23.5001 5.49993 23.7858 6.21422C23.9644 6.6785 24.6072 6.78564 27.0001 6.78564H30.0001V3.39279V-6.935e-05H27.0001C24.6072 -6.935e-05 23.9644 0.107074 23.7858 0.571359Z" fill="#233C7B"/>
<path d="M16.5715 1.89251C13.5715 3.78537 13.2144 4.17822 12.3573 7.03537C12.1073 7.74965 12.2144 7.85679 13.2144 7.85679C14.0358 7.85679 14.393 7.64251 14.643 6.99965C15.0358 5.89251 16.2501 5.21394 17.0001 5.64251C17.5001 5.92822 17.2858 6.28537 15.7501 7.99965C13.9644 9.96394 13.4287 11.4282 14.4644 11.4282C15.2858 11.4282 21.1073 7.10679 21.4287 6.28537C21.5715 5.85679 21.9644 5.28537 22.2858 5.03537C22.6787 4.71394 22.8573 3.96394 22.8573 2.64251V0.713936L20.643 0.749651C18.7858 0.749651 18.0715 0.963936 16.5715 1.89251Z" fill="#233C7B"/>
<path d="M9.28564 13.5713V18.5713H14.9999H20.7142V13.5713C20.7142 10.8213 20.6428 8.57129 20.5356 8.57129C20.4285 8.57129 19.2499 9.357 17.9285 10.2856C15.1071 12.3213 14.3571 12.6427 13.7142 12.107C13.1071 11.607 13.0714 9.57129 13.6428 8.99986C13.9642 8.67843 13.5356 8.57129 11.6785 8.57129H9.28564V13.5713ZM15.3571 13.2141C15.3571 13.3927 15.2142 13.5713 14.9999 13.5713C14.8214 13.5713 14.6428 13.3927 14.6428 13.2141C14.6428 12.9999 14.8214 12.857 14.9999 12.857C15.2142 12.857 15.3571 12.9999 15.3571 13.2141ZM13.2142 13.9284C13.2142 14.107 13.1428 14.2856 13.0714 14.2856C12.9642 14.2856 12.7856 14.107 12.6785 13.9284C12.5714 13.7141 12.6428 13.5713 12.8214 13.5713C13.0356 13.5713 13.2142 13.7141 13.2142 13.9284ZM17.4999 13.7141C17.4999 14.107 16.8214 14.2499 16.6071 13.9284C16.4999 13.7499 16.6428 13.5713 16.9285 13.5713C17.2499 13.5713 17.4999 13.6427 17.4999 13.7141ZM11.7856 15.357C11.7856 15.5356 11.6428 15.7141 11.4285 15.7141C11.2499 15.7141 11.0714 15.5356 11.0714 15.357C11.0714 15.1427 11.2499 14.9999 11.4285 14.9999C11.6428 14.9999 11.7856 15.1427 11.7856 15.357ZM18.9285 15.1427C18.9285 15.2499 18.7856 15.4284 18.5714 15.5356C18.3928 15.6427 18.2142 15.5713 18.2142 15.3927C18.2142 15.1784 18.3928 14.9999 18.5714 14.9999C18.7856 14.9999 18.9285 15.0713 18.9285 15.1427ZM11.4285 17.2856C11.4285 17.3927 11.2856 17.5713 11.0714 17.6784C10.8928 17.7856 10.7142 17.7141 10.7142 17.5356C10.7142 17.3213 10.8928 17.1427 11.0714 17.1427C11.2856 17.1427 11.4285 17.2141 11.4285 17.2856Z" fill="#233C7B"/>
<path d="M2.89286 15.7857C2.71429 16.25 2 17.8571 1.28571 19.4286C0.5 21.1071 0 22.7857 0 23.6071V25H15H30V23.6429C30 22.7857 29.3929 20.9286 28.3929 18.7143L26.8214 15.1786L24.2857 15.0714L21.7857 14.9643V16.25C21.7857 17.25 21.9286 17.5 22.4643 17.5C23.0714 17.5 23.5714 18.1429 23.5714 18.9643C23.5714 19.1429 19.9643 19.2857 15 19.2857C10.0357 19.2857 6.42857 19.1429 6.42857 18.9643C6.42857 18.1429 6.92857 17.5 7.53571 17.5C8.07143 17.5 8.21429 17.25 8.21429 16.25V15H5.71429C3.42857 15 3.17857 15.0714 2.89286 15.7857Z" fill="#233C7B"/>
<path d="M0.78561 27.7499L0.892752 29.8213H14.9999H29.107L29.2142 27.7499L29.3213 25.7141H14.9999H0.678467L0.78561 27.7499Z" fill="#233C7B"/>
</g>
<defs>
<clipPath id="clip0_300_62">
<rect width="30" height="30" fill="white"/>
</clipPath>
</defs>
</svg>
